<svg width="30" height="30" viewBox="0 0 30 30" fill="none" xmlns="http://www.w3.org/2000/svg">
<path opacity="0.7" d="M15 0C6.72884 0 0 6.0064 0 13.3894C0.0243874 16.7067 1.36131 19.8794 3.71842 22.2136L3.79102 28.6477C3.79617 29.1457 4.07182 29.6014 4.51046 29.8372C4.94911 30.0729 5.48128 30.0514 5.89941 29.7809L11.2129 26.3453C12.4546 26.6336 13.7252 26.779 15 26.7789C23.2712 26.7789 30 20.7725 30 13.3894C30 6.0064 23.2712 0 15 0ZM5.4056 21.069C3.26306 19.0861 2.03134 16.3086 2 13.3894C2 7.10928 7.83171 2.00007 15 2.00007C22.1683 2.00007 28 7.10929 28 13.3894C28 19.6696 22.1683 24.7788 15 24.7788C13.7466 24.7792 12.4984 24.6195 11.2855 24.3035L10.8597 24.1922L5.77798 27.4778L5.70898 21.3597L5.4056 21.069ZM8.02909 15.2171C9.03856 15.2171 9.85689 14.3988 9.85689 13.3893C9.85689 12.3798 9.03856 11.5615 8.02909 11.5615C7.01963 11.5615 6.20129 12.3798 6.20129 13.3893C6.20129 14.3988 7.01963 15.2171 8.02909 15.2171ZM15 15.2171C16.0095 15.2171 16.8278 14.3988 16.8278 13.3893C16.8278 12.3798 16.0095 11.5615 15 11.5615C13.9905 11.5615 13.1722 12.3798 13.1722 13.3893C13.1722 14.3988 13.9905 15.2171 15 15.2171ZM21.9709 15.2171C22.9804 15.2171 23.7987 14.3988 23.7987 13.3893C23.7987 12.3798 22.9804 11.5615 21.9709 11.5615C20.9614 11.5615 20.1431 12.3798 20.1431 13.3893C20.1431 14.3988 20.9614 15.2171 21.9709 15.2171Z" fill="black"/>
</svg>
